<svg xmlns="http://www.w3.org/2000/svg" xmlns:xlink="http://www.w3.org/1999/xlink" width="500" zoomAndPan="magnify" viewBox="0 0 375 374.999991" height="500" preserveAspectRatio="xMidYMid meet" version="1.0"><defs><g/><linearGradient x1="0" gradientTransform="matrix(0.75, 0, 0, 0.75, 0.0000045, 0)" y1="250" x2="499.999979" gradientUnits="userSpaceOnUse" y2="250" id="19d272b8f1"><stop stop-opacity="1" stop-color="rgb(0%, 0%, 0%)" offset="0"/><stop stop-opacity="1" stop-color="rgb(0.192261%, 0.189209%, 0.189209%)" offset="0.015625"/><stop stop-opacity="1" stop-color="rgb(0.576782%, 0.567627%, 0.567627%)" offset="0.03125"/><stop stop-opacity="1" stop-color="rgb(0.96283%, 0.947571%, 0.947571%)" offset="0.046875"/><stop stop-opacity="1" stop-color="rgb(1.348877%, 1.327515%, 1.327515%)" offset="0.0625"/><stop stop-opacity="1" stop-color="rgb(1.734924%, 1.707458%, 1.707458%)" offset="0.078125"/><stop stop-opacity="1" stop-color="rgb(2.120972%, 2.087402%, 2.087402%)" offset="0.09375"/><stop stop-opacity="1" stop-color="rgb(2.507019%, 2.46582%, 2.46582%)" offset="0.109375"/><stop stop-opacity="1" stop-color="rgb(2.893066%, 2.845764%, 2.845764%)" offset="0.125"/><stop stop-opacity="1" stop-color="rgb(3.279114%, 3.225708%, 3.225708%)" offset="0.140625"/><stop stop-opacity="1" stop-color="rgb(3.665161%, 3.605652%, 3.605652%)" offset="0.15625"/><stop stop-opacity="1" stop-color="rgb(4.051208%, 3.985596%, 3.985596%)" offset="0.171875"/><stop stop-opacity="1" stop-color="rgb(4.437256%, 4.36554%, 4.36554%)" offset="0.1875"/><stop stop-opacity="1" stop-color="rgb(4.823303%, 4.743958%, 4.743958%)" offset="0.203125"/><stop stop-opacity="1" stop-color="rgb(5.209351%, 5.123901%, 5.123901%)" offset="0.21875"/><stop stop-opacity="1" stop-color="rgb(5.593872%, 5.503845%, 5.503845%)" offset="0.234375"/><stop stop-opacity="1" stop-color="rgb(5.979919%, 5.883789%, 5.883789%)" offset="0.25"/><stop stop-opacity="1" stop-color="rgb(6.365967%, 6.263733%, 6.263733%)" offset="0.265625"/><stop stop-opacity="1" stop-color="rgb(6.752014%, 6.643677%, 6.643677%)" offset="0.28125"/><stop stop-opacity="1" stop-color="rgb(7.138062%, 7.022095%, 7.022095%)" offset="0.296875"/><stop stop-opacity="1" stop-color="rgb(7.524109%, 7.402039%, 7.402039%)" offset="0.3125"/><stop stop-opacity="1" stop-color="rgb(7.910156%, 7.781982%, 7.781982%)" offset="0.328125"/><stop stop-opacity="1" stop-color="rgb(8.296204%, 8.161926%, 8.161926%)" offset="0.34375"/><stop stop-opacity="1" stop-color="rgb(8.682251%, 8.54187%, 8.54187%)" offset="0.359375"/><stop stop-opacity="1" stop-color="rgb(9.068298%, 8.921814%, 8.921814%)" offset="0.375"/><stop stop-opacity="1" stop-color="rgb(9.454346%, 9.300232%, 9.300232%)" offset="0.390625"/><stop stop-opacity="1" stop-color="rgb(9.840393%, 9.680176%, 9.680176%)" offset="0.40625"/><stop stop-opacity="1" stop-color="rgb(10.22644%, 10.06012%, 10.06012%)" offset="0.421875"/><stop stop-opacity="1" stop-color="rgb(10.612488%, 10.440063%, 10.440063%)" offset="0.4375"/><stop stop-opacity="1" stop-color="rgb(10.997009%, 10.820007%, 10.820007%)" offset="0.453125"/><stop stop-opacity="1" stop-color="rgb(11.383057%, 11.199951%, 11.199951%)" offset="0.46875"/><stop stop-opacity="1" stop-color="rgb(11.769104%, 11.578369%, 11.578369%)" offset="0.484375"/><stop stop-opacity="1" stop-color="rgb(12.155151%, 11.958313%, 11.958313%)" offset="0.5"/><stop stop-opacity="1" stop-color="rgb(12.541199%, 12.338257%, 12.338257%)" offset="0.515625"/><stop stop-opacity="1" stop-color="rgb(12.927246%, 12.718201%, 12.718201%)" offset="0.53125"/><stop stop-opacity="1" stop-color="rgb(13.313293%, 13.098145%, 13.098145%)" offset="0.546875"/><stop stop-opacity="1" stop-color="rgb(13.699341%, 13.478088%, 13.478088%)" offset="0.5625"/><stop stop-opacity="1" stop-color="rgb(14.085388%, 13.856506%, 13.856506%)" offset="0.578125"/><stop stop-opacity="1" stop-color="rgb(14.471436%, 14.23645%, 14.23645%)" offset="0.59375"/><stop stop-opacity="1" stop-color="rgb(14.857483%, 14.616394%, 14.616394%)" offset="0.609375"/><stop stop-opacity="1" stop-color="rgb(15.24353%, 14.996338%, 14.996338%)" offset="0.625"/><stop stop-opacity="1" stop-color="rgb(15.629578%, 15.376282%, 15.376282%)" offset="0.640625"/><stop stop-opacity="1" stop-color="rgb(16.015625%, 15.756226%, 15.756226%)" offset="0.65625"/><stop stop-opacity="1" stop-color="rgb(16.400146%, 16.134644%, 16.134644%)" offset="0.671875"/><stop stop-opacity="1" stop-color="rgb(16.786194%, 16.514587%, 16.514587%)" offset="0.6875"/><stop stop-opacity="1" stop-color="rgb(17.172241%, 16.894531%, 16.894531%)" offset="0.703125"/><stop stop-opacity="1" stop-color="rgb(17.558289%, 17.274475%, 17.274475%)" offset="0.71875"/><stop stop-opacity="1" stop-color="rgb(17.944336%, 17.654419%, 17.654419%)" offset="0.734375"/><stop stop-opacity="1" stop-color="rgb(18.330383%, 18.034363%, 18.034363%)" offset="0.75"/><stop stop-opacity="1" stop-color="rgb(18.716431%, 18.412781%, 18.412781%)" offset="0.765625"/><stop stop-opacity="1" stop-color="rgb(19.102478%, 18.792725%, 18.792725%)" offset="0.78125"/><stop stop-opacity="1" stop-color="rgb(19.488525%, 19.172668%, 19.172668%)" offset="0.796875"/><stop stop-opacity="1" stop-color="rgb(19.874573%, 19.552612%, 19.552612%)" offset="0.8125"/><stop stop-opacity="1" stop-color="rgb(20.26062%, 19.932556%, 19.932556%)" offset="0.828125"/><stop stop-opacity="1" stop-color="rgb(20.646667%, 20.3125%, 20.3125%)" offset="0.84375"/><stop stop-opacity="1" stop-color="rgb(21.032715%, 20.690918%, 20.690918%)" offset="0.859375"/><stop stop-opacity="1" stop-color="rgb(21.418762%, 21.070862%, 21.070862%)" offset="0.875"/><stop stop-opacity="1" stop-color="rgb(21.803284%, 21.450806%, 21.450806%)" offset="0.890625"/><stop stop-opacity="1" stop-color="rgb(22.189331%, 21.83075%, 21.83075%)" offset="0.90625"/><stop stop-opacity="1" stop-color="rgb(22.575378%, 22.210693%, 22.210693%)" offset="0.921875"/><stop stop-opacity="1" stop-color="rgb(22.961426%, 22.590637%, 22.590637%)" offset="0.9375"/><stop stop-opacity="1" stop-color="rgb(23.347473%, 22.969055%, 22.969055%)" offset="0.953125"/><stop stop-opacity="1" stop-color="rgb(23.733521%, 23.348999%, 23.348999%)" offset="0.96875"/><stop stop-opacity="1" stop-color="rgb(24.119568%, 23.728943%, 23.728943%)" offset="0.984375"/><stop stop-opacity="1" stop-color="rgb(24.505615%, 24.108887%, 24.108887%)" offset="1"/></linearGradient></defs><rect x="-37.5" width="450" fill="#ffffff" y="-37.499999" height="449.999989" fill-opacity="1"/><rect x="-37.5" fill="url(#19d272b8f1)" width="450" y="-37.499999" height="449.999989"/><g fill="#e3dddd" fill-opacity="1"><g transform="translate(144.857973, 14.689089)"><g><path d="M 5.28125 -3.9375 L 5.265625 -3.9375 L 4 -1.46875 L 2.984375 -1.46875 L 1.703125 -3.9375 L 1.6875 -3.9375 L 1.6875 0 L 0.625 0 L 0.625 -5.828125 L 1.75 -5.828125 L 3.484375 -2.390625 L 3.5 -2.390625 L 5.234375 -5.828125 L 6.375 -5.828125 L 6.375 0 L 5.28125 0 Z M 5.28125 -3.9375 "/></g></g></g><g fill="#e3dddd" fill-opacity="1"><g transform="translate(158.022042, 14.689089)"><g><path d="M 1.484375 -5.828125 L 2.796875 -3.21875 L 2.8125 -3.21875 L 4.125 -5.828125 L 5.375 -5.828125 L 3.375 -2.3125 L 3.375 0 L 2.203125 0 L 2.203125 -2.3125 L 0.1875 -5.828125 Z M 1.484375 -5.828125 "/></g></g></g><g fill="#e3dddd" fill-opacity="1"><g transform="translate(169.74828, 14.689089)"><g/></g></g><g fill="#e3dddd" fill-opacity="1"><g transform="translate(178.327277, 14.689089)"><g><path d="M 3.390625 -5 C 2.785156 -5 2.300781 -4.8125 1.9375 -4.4375 C 1.582031 -4.0625 1.40625 -3.554688 1.40625 -2.921875 C 1.40625 -2.273438 1.585938 -1.765625 1.953125 -1.390625 C 2.328125 -1.015625 2.804688 -0.828125 3.390625 -0.828125 C 3.867188 -0.828125 4.34375 -0.972656 4.8125 -1.265625 L 5.140625 -0.4375 C 4.597656 -0.09375 3.976562 0.078125 3.28125 0.078125 C 2.375 0.078125 1.644531 -0.191406 1.09375 -0.734375 C 0.539062 -1.273438 0.265625 -2.003906 0.265625 -2.921875 C 0.265625 -3.835938 0.535156 -4.5625 1.078125 -5.09375 C 1.617188 -5.632812 2.351562 -5.90625 3.28125 -5.90625 C 3.976562 -5.90625 4.597656 -5.734375 5.140625 -5.390625 L 4.8125 -4.5625 C 4.34375 -4.851562 3.867188 -5 3.390625 -5 Z M 3.390625 -5 "/></g></g></g><g fill="#e3dddd" fill-opacity="1"><g transform="translate(190.093462, 14.689089)"><g><path d="M 1.0625 -5.09375 C 1.59375 -5.632812 2.300781 -5.90625 3.1875 -5.90625 C 4.070312 -5.90625 4.773438 -5.632812 5.296875 -5.09375 C 5.828125 -4.550781 6.09375 -3.820312 6.09375 -2.90625 C 6.09375 -2 5.828125 -1.273438 5.296875 -0.734375 C 4.773438 -0.191406 4.070312 0.078125 3.1875 0.078125 C 2.300781 0.078125 1.59375 -0.191406 1.0625 -0.734375 C 0.53125 -1.273438 0.265625 -2 0.265625 -2.90625 C 0.265625 -3.820312 0.53125 -4.550781 1.0625 -5.09375 Z M 1.890625 -1.390625 C 2.210938 -1.023438 2.644531 -0.84375 3.1875 -0.84375 C 3.726562 -0.84375 4.15625 -1.023438 4.46875 -1.390625 C 4.789062 -1.753906 4.953125 -2.257812 4.953125 -2.90625 C 4.953125 -3.5625 4.789062 -4.070312 4.46875 -4.4375 C 4.15625 -4.800781 3.726562 -4.984375 3.1875 -4.984375 C 2.644531 -4.984375 2.210938 -4.800781 1.890625 -4.4375 C 1.566406 -4.070312 1.40625 -3.5625 1.40625 -2.90625 C 1.40625 -2.257812 1.566406 -1.753906 1.890625 -1.390625 Z M 1.890625 -1.390625 "/></g></g></g><g fill="#e3dddd" fill-opacity="1"><g transform="translate(202.618494, 14.689089)"><g><path d="M 5.28125 -3 C 5.28125 -2 5.015625 -1.234375 4.484375 -0.703125 C 3.960938 -0.179688 3.210938 0.078125 2.234375 0.078125 C 1.660156 0.078125 1.125 0.0351562 0.625 -0.046875 L 0.625 -5.78125 C 1.125 -5.863281 1.660156 -5.90625 2.234375 -5.90625 C 3.203125 -5.90625 3.953125 -5.648438 4.484375 -5.140625 C 5.015625 -4.640625 5.28125 -3.925781 5.28125 -3 Z M 4.21875 -3 C 4.21875 -4.34375 3.570312 -5.015625 2.28125 -5.015625 C 2.082031 -5.015625 1.898438 -5 1.734375 -4.96875 L 1.734375 -0.859375 C 1.898438 -0.828125 2.082031 -0.8125 2.28125 -0.8125 C 2.925781 -0.8125 3.410156 -0.988281 3.734375 -1.34375 C 4.054688 -1.707031 4.21875 -2.257812 4.21875 -3 Z M 4.21875 -3 "/></g></g></g><g fill="#e3dddd" fill-opacity="1"><g transform="translate(214.328764, 14.689089)"><g><path d="M 1.75 -4.921875 L 1.75 -3.5 L 4.09375 -3.5 L 4.09375 -2.640625 L 1.75 -2.640625 L 1.75 -0.90625 L 4.25 -0.90625 L 4.25 0 L 0.625 0 L 0.625 -5.828125 L 4.25 -5.828125 L 4.25 -4.921875 Z M 1.75 -4.921875 "/></g></g></g><g fill="#e3dddd" fill-opacity="1"><g transform="translate(225.280175, 14.689089)"><g><path d="M 4.046875 -4.671875 C 3.566406 -4.910156 3.046875 -5.03125 2.484375 -5.03125 C 2.191406 -5.03125 1.960938 -4.960938 1.796875 -4.828125 C 1.640625 -4.703125 1.5625 -4.535156 1.5625 -4.328125 C 1.5625 -3.953125 1.835938 -3.6875 2.390625 -3.53125 C 3.128906 -3.320312 3.648438 -3.066406 3.953125 -2.765625 C 4.265625 -2.472656 4.421875 -2.085938 4.421875 -1.609375 C 4.421875 -1.066406 4.238281 -0.648438 3.875 -0.359375 C 3.519531 -0.0664062 3 0.078125 2.3125 0.078125 C 1.613281 0.078125 0.988281 -0.09375 0.4375 -0.4375 L 0.703125 -1.328125 C 1.222656 -0.984375 1.765625 -0.8125 2.328125 -0.8125 C 2.640625 -0.8125 2.878906 -0.878906 3.046875 -1.015625 C 3.210938 -1.148438 3.296875 -1.34375 3.296875 -1.59375 C 3.296875 -1.820312 3.226562 -2.003906 3.09375 -2.140625 C 2.957031 -2.273438 2.722656 -2.390625 2.390625 -2.484375 C 1.703125 -2.679688 1.207031 -2.929688 0.90625 -3.234375 C 0.601562 -3.535156 0.453125 -3.898438 0.453125 -4.328125 C 0.453125 -4.804688 0.628906 -5.1875 0.984375 -5.46875 C 1.335938 -5.757812 1.832031 -5.90625 2.46875 -5.90625 C 3.125 -5.90625 3.726562 -5.78125 4.28125 -5.53125 Z M 4.046875 -4.671875 "/></g></g></g></svg>